<svg width="534" height="125" viewBox="0 0 534 125" fill="none" xmlns="http://www.w3.org/2000/svg">
<path d="M0.82625 1.2H15.2263V6.96H6.58625V20.72H15.2263V26.48H6.58625V46H0.82625V1.2ZM18.7638 1.2H24.5238V5.872C28.0438 2.48 32.7158 0.559998 37.3238 0.559998C45.5158 0.559998 51.7238 6.64 51.7238 14.96C51.7238 22.96 46.0918 30 38.5398 32.56L51.2118 40.112V46.832L24.5238 30.832V46H18.7638V1.2ZM45.9638 14.896C45.9638 9.776 42.2518 6.256 37.3878 6.256C30.8598 6.256 24.6518 12.144 24.6518 18.736C24.6518 23.856 27.9158 27.568 33.3558 27.568C40.0118 27.568 45.9638 21.488 45.9638 14.896ZM75.0938 34.992L80.2138 37.68C77.2058 43.248 71.4458 46.704 65.7498 46.704C58.5818 46.704 53.0778 41.328 53.0778 33.968C53.0778 27.696 57.0458 22 62.5498 19.248L53.3338 7.216V1.2H79.9578V6.96H60.3098L68.6298 17.648L67.3498 23.6C62.8698 24.368 58.7738 29.296 58.7738 33.776C58.7738 38.064 61.5898 40.944 65.7498 40.944C69.5898 40.944 73.3658 38.384 75.0938 34.992ZM120.311 42.672L116.087 46.576L111.799 41.968C108.087 44.848 103.607 46.64 98.7433 46.64C87.7353 46.64 80.9513 37.296 80.9513 26.928C80.9513 14.192 91.0633 0.559998 104.567 0.559998C115.511 0.559998 122.359 9.968 122.359 20.336C122.359 26.544 119.927 32.944 115.895 37.936L120.311 42.672ZM104.695 6.32C94.1353 6.32 86.7113 17.008 86.7113 26.864C86.7113 33.84 90.9353 40.816 98.5513 40.816C102.007 40.816 105.207 39.664 107.831 37.68L103.671 33.2L107.895 29.296L111.991 33.712C114.935 29.872 116.663 25.008 116.663 20.336C116.663 13.296 112.375 6.32 104.695 6.32ZM135.906 0.09375V28.4688C135.906 31.8021 136.531 34.5729 137.781 36.7812C139.635 40.1146 142.76 41.7812 147.156 41.7812C152.427 41.7812 156.01 39.9792 157.906 36.375C158.927 34.4167 159.438 31.7812 159.438 28.4688V0.09375H165.75V25.875C165.75 31.5208 164.99 35.8646 163.469 38.9062C160.677 44.4479 155.406 47.2188 147.656 47.2188C139.906 47.2188 134.646 44.4479 131.875 38.9062C130.354 35.8646 129.594 31.5208 129.594 25.875V0.09375H135.906ZM194.531 34.992L199.651 37.68C196.643 43.248 190.883 46.704 185.187 46.704C178.019 46.704 172.515 41.328 172.515 33.968C172.515 27.696 176.483 22 181.987 19.248L172.771 7.216V1.2H199.395V6.96H179.747L188.067 17.648L186.787 23.6C182.307 24.368 178.211 29.296 178.211 33.776C178.211 38.064 181.027 40.944 185.187 40.944C189.027 40.944 192.803 38.384 194.531 34.992ZM234.58 1.2H240.34V46H230.42L228.5 40.24L218.132 10.032L205.844 46H199.764L215.06 1.2H221.204L234.58 40.24V1.2ZM243.576 1.2H265.912V6.96H257.656V46H251.896V6.96H243.576V1.2ZM269.139 1.2H274.899V40.24H283.539V46H269.139V1.2ZM308.329 1.2H314.729L298.345 35.568V46H292.585V35.568L276.201 1.2H282.601L295.465 28.208L308.329 1.2ZM361.853 40.88C368.445 40.88 374.461 35.12 374.461 28.464C374.461 23.472 371.453 19.568 365.885 19.568C359.293 19.568 353.213 25.328 353.213 31.984C353.213 36.912 356.285 40.88 361.853 40.88ZM353.213 6.96V1.2H380.285V46H374.525V41.264C371.069 44.72 366.397 46.64 361.853 46.64C353.661 46.64 347.453 40.496 347.453 32.176C347.453 22.512 356.093 13.808 365.885 13.808C368.829 13.808 372.093 14.704 374.525 16.56V6.96H353.213ZM411.489 33.904C411.489 41.2 405.985 46.64 398.881 46.64C391.329 46.64 384.161 40.56 383.265 33.072L388.897 32.048C389.537 36.848 394.017 40.88 398.881 40.88C403.105 40.88 405.793 37.744 405.793 33.712C405.793 27.76 400.545 25.328 395.809 23.6C389.921 21.36 385.569 17.712 385.569 11.056C385.569 5.04 390.049 0.559998 396.001 0.559998C401.057 0.559998 405.665 3.696 407.841 8.112L402.721 10.928C401.889 8.368 398.689 6.256 396.001 6.256C393.313 6.256 391.265 8.176 391.265 10.992C391.265 15.536 395.297 17.2 399.009 18.608C405.985 21.296 411.489 25.904 411.489 33.904ZM459.699 0.815998V6.896L420.275 20.08V27.12L459.699 40.304V46.384L420.275 33.2V46H414.451V1.2H420.275V14L459.699 0.815998ZM484.656 34.992L489.776 37.68C486.768 43.248 481.008 46.704 475.312 46.704C468.144 46.704 462.64 41.328 462.64 33.968C462.64 27.696 466.608 22 472.112 19.248L462.896 7.216V1.2H489.52V6.96H469.872L478.192 17.648L476.912 23.6C472.432 24.368 468.336 29.296 468.336 33.776C468.336 38.064 471.152 40.944 475.312 40.944C479.152 40.944 482.928 38.384 484.656 34.992ZM515.676 40.24C522.78 40.24 527.388 33.2 527.388 26.608C527.388 16.944 519.26 6.896 509.212 6.896H498.524V40.24H515.676ZM509.596 1.2C522.78 1.2 533.084 14.064 533.084 26.672C533.084 36.528 526.172 46 516.06 46H492.764V1.2H509.596ZM153.593 119.672L149.369 123.576L145.081 118.968C141.369 121.848 136.889 123.64 132.025 123.64C121.017 123.64 114.233 114.296 114.233 103.928C114.233 91.192 124.345 77.56 137.849 77.56C148.793 77.56 155.641 86.968 155.641 97.336C155.641 103.544 153.209 109.944 149.177 114.936L153.593 119.672ZM137.977 83.32C127.417 83.32 119.993 94.008 119.993 103.864C119.993 110.84 124.217 117.816 131.833 117.816C135.289 117.816 138.489 116.664 141.113 114.68L136.953 110.2L141.177 106.296L145.273 110.712C148.217 106.872 149.944 102.008 149.944 97.336C149.944 90.296 145.657 83.32 137.977 83.32ZM169.188 77.0938V105.469C169.188 108.802 169.812 111.573 171.062 113.781C172.917 117.115 176.042 118.781 180.438 118.781C185.708 118.781 189.292 116.979 191.188 113.375C192.208 111.417 192.719 108.781 192.719 105.469V77.0938H199.031V102.875C199.031 108.521 198.271 112.865 196.75 115.906C193.958 121.448 188.688 124.219 180.938 124.219C173.188 124.219 167.927 121.448 165.156 115.906C163.635 112.865 162.875 108.521 162.875 102.875V77.0938H169.188ZM227.813 111.992L232.933 114.68C229.925 120.248 224.165 123.704 218.469 123.704C211.301 123.704 205.797 118.328 205.797 110.968C205.797 104.696 209.765 99 215.269 96.248L206.053 84.216V78.2H232.677V83.96H213.029L221.349 94.648L220.069 100.6C215.589 101.368 211.493 106.296 211.493 110.776C211.493 115.064 214.309 117.944 218.469 117.944C222.309 117.944 226.085 115.384 227.813 111.992ZM263.208 110.904C263.208 118.2 257.704 123.64 250.6 123.64C243.048 123.64 235.88 117.56 234.984 110.072L240.616 109.048C241.256 113.848 245.736 117.88 250.6 117.88C254.824 117.88 257.512 114.744 257.512 110.712C257.512 104.76 252.264 102.328 247.528 100.6C241.64 98.36 237.288 94.712 237.288 88.056C237.288 82.04 241.768 77.56 247.72 77.56C252.776 77.56 257.384 80.696 259.56 85.112L254.44 87.928C253.608 85.368 250.408 83.256 247.72 83.256C245.032 83.256 242.984 85.176 242.984 87.992C242.984 92.536 247.016 94.2 250.728 95.608C257.704 98.296 263.208 102.904 263.208 110.904ZM261.983 78.2H284.319V83.96H276.062V123H270.303V83.96H261.983V78.2ZM287.545 78.2H310.585V83.96H301.945V117.24H310.585V123H287.545V117.24H296.185V83.96H287.545V78.2ZM333.913 77.56C344.921 77.56 351.705 87.032 351.705 97.336C351.705 110.072 341.529 123.64 328.089 123.64C317.081 123.64 310.297 114.296 310.297 103.928C310.297 91.192 320.409 77.56 333.913 77.56ZM334.041 83.32C323.545 83.32 316.057 93.944 316.057 103.864C316.057 111.416 320.729 117.816 327.897 117.816C338.329 117.816 346.009 107.128 346.009 97.336C346.009 89.528 341.145 83.32 334.041 83.32ZM382.736 78.2H388.496V123H378.576L376.656 117.24L366.288 87.032L354 123H347.92L363.216 78.2H369.36L382.736 117.24V78.2ZM419.708 110.904C419.708 118.2 414.204 123.64 407.1 123.64C399.548 123.64 392.38 117.56 391.484 110.072L397.116 109.048C397.756 113.848 402.236 117.88 407.1 117.88C411.324 117.88 414.012 114.744 414.012 110.712C414.012 104.76 408.764 102.328 404.028 100.6C398.14 98.36 393.788 94.712 393.788 88.056C393.788 82.04 398.268 77.56 404.22 77.56C409.276 77.56 413.884 80.696 416.06 85.112L410.94 87.928C410.108 85.368 406.908 83.256 404.22 83.256C401.532 83.256 399.484 85.176 399.484 87.992C399.484 92.536 403.516 94.2 407.228 95.608C414.204 98.296 419.708 102.904 419.708 110.904Z" fill="white"/>
</svg>
