<svg width="88" height="88" viewBox="0 0 88 88" fill="none" xmlns="http://www.w3.org/2000/svg">
<rect width="88" height="88" rx="44" fill="#0492C2"/>
<path d="M32.5268 66.897C30.8048 66.897 29.1738 66.5167 27.7085 65.8377L20.6665 67.3333L22.1388 60.2773C21.4552 58.8073 21.0725 57.1693 21.0725 55.4427C21.0725 49.124 26.1942 44 32.5152 44C38.8362 44 43.9578 49.124 43.9578 55.4427C43.9578 61.7613 38.8338 66.8853 32.5152 66.8853" stroke="white" stroke-width="3" stroke-linecap="round" stroke-linejoin="round"/>
<path d="M31.428 44.0444C30.511 42.0494 30 39.863 30 37.56C30 28.187 38.3953 20.6667 48.6667 20.6667C58.938 20.6667 67.3333 28.187 67.3333 37.56C67.3333 43.0994 64.3887 47.976 59.869 51.0514C59.8713 52.8154 59.8667 55.193 59.8667 57.6897L52.5423 54.0824C51.2893 54.3227 49.9943 54.4534 48.6667 54.4534C47.0077 54.4534 45.4047 54.2387 43.8693 53.87" stroke="white" stroke-width="3" stroke-linecap="round" stroke-linejoin="round"/>
<path d="M27.1891 55.584C27.2347 55.6296 27.2347 55.7035 27.1891 55.749C27.1435 55.7946 27.0697 55.7946 27.0241 55.749C26.9786 55.7035 26.9786 55.6296 27.0241 55.584C27.0697 55.5385 27.1435 55.5385 27.1891 55.584" stroke="white" stroke-width="3" stroke-linecap="round" stroke-linejoin="round"/>
<path d="M32.4391 55.584C32.4847 55.6296 32.4847 55.7035 32.4391 55.749C32.3935 55.7946 32.3197 55.7946 32.2741 55.749C32.2286 55.7035 32.2286 55.6296 32.2741 55.584C32.3197 55.5385 32.3935 55.5385 32.4391 55.584" stroke="white" stroke-width="3" stroke-linecap="round" stroke-linejoin="round"/>
<path d="M37.6891 55.584C37.7347 55.6296 37.7347 55.7035 37.6891 55.749C37.6435 55.7946 37.5697 55.7946 37.5241 55.749C37.4786 55.7035 37.4786 55.6296 37.5241 55.584C37.5697 55.5385 37.6435 55.5385 37.6891 55.584" stroke="white" stroke-width="3" stroke-linecap="round" stroke-linejoin="round"/>
<path d="M48.6664 39.436C48.6664 37.903 49.6138 37.0723 50.5634 36.433C51.4921 35.8076 52.4208 34.9933 52.4208 33.493C52.4208 31.4186 50.7408 29.7386 48.6664 29.7386C46.5921 29.7386 44.9121 31.4186 44.9121 33.493" stroke="white" stroke-width="3" stroke-linecap="round" stroke-linejoin="round"/>
<path d="M48.6667 45.0686C48.5383 45.0686 48.4333 45.1736 48.4333 45.302C48.4333 45.4303 48.5383 45.5353 48.6667 45.5353C48.795 45.5353 48.9 45.4303 48.9 45.302C48.9 45.1736 48.795 45.0686 48.6667 45.0686" stroke="white" stroke-width="3" stroke-linecap="round" stroke-linejoin="round"/>
</svg>
