<svg width="549" height="48" viewBox="0 0 549 48" fill="none" xmlns="http://www.w3.org/2000/svg">
<path d="M7.125 0.09375V28.4688C7.125 31.8021 7.75 34.5729 9 36.7812C10.8542 40.1146 13.9792 41.7812 18.375 41.7812C23.6458 41.7812 27.2292 39.9792 29.125 36.375C30.1458 34.4167 30.6562 31.7812 30.6562 28.4688V0.09375H36.9688V25.875C36.9688 31.5208 36.2083 35.8646 34.6875 38.9062C31.8958 44.4479 26.625 47.2188 18.875 47.2188C11.125 47.2188 5.86458 44.4479 3.09375 38.9062C1.57292 35.8646 0.8125 31.5208 0.8125 25.875V0.09375H7.125ZM71.958 33.904C71.958 41.2 66.454 46.64 59.35 46.64C51.798 46.64 44.63 40.56 43.734 33.072L49.366 32.048C50.006 36.848 54.486 40.88 59.35 40.88C63.574 40.88 66.262 37.744 66.262 33.712C66.262 27.76 61.014 25.328 56.278 23.6C50.39 21.36 46.038 17.712 46.038 11.056C46.038 5.04 50.518 0.559998 56.47 0.559998C61.526 0.559998 66.134 3.696 68.31 8.112L63.19 10.928C62.358 8.368 59.158 6.256 56.47 6.256C53.782 6.256 51.734 8.176 51.734 10.992C51.734 15.536 55.766 17.2 59.478 18.608C66.454 21.296 71.958 25.904 71.958 33.904ZM96.6875 34.992L101.808 37.68C98.7995 43.248 93.0395 46.704 87.3435 46.704C80.1755 46.704 74.6715 41.328 74.6715 33.968C74.6715 27.696 78.6395 22 84.1435 19.248L74.9275 7.216V1.2H101.552V6.96H81.9035L90.2235 17.648L88.9435 23.6C84.4635 24.368 80.3675 29.296 80.3675 33.776C80.3675 38.064 83.1835 40.944 87.3435 40.944C91.1835 40.944 94.9595 38.384 96.6875 34.992ZM104.795 1.2H110.555V5.872C114.075 2.48 118.747 0.559998 123.355 0.559998C131.547 0.559998 137.755 6.64 137.755 14.96C137.755 22.96 132.123 30 124.571 32.56L137.243 40.112V46.832L110.555 30.832V46H104.795V1.2ZM131.995 14.896C131.995 9.776 128.283 6.256 123.419 6.256C116.891 6.256 110.683 12.144 110.683 18.736C110.683 23.856 113.947 27.568 119.387 27.568C126.043 27.568 131.995 21.488 131.995 14.896ZM170.42 1.2H192.756V6.96H184.5V46H178.74V6.96H170.42V1.2ZM217.75 34.992L222.87 37.68C219.862 43.248 214.102 46.704 208.406 46.704C201.238 46.704 195.734 41.328 195.734 33.968C195.734 27.696 199.702 22 205.206 19.248L195.99 7.216V1.2H222.614V6.96H202.966L211.286 17.648L210.006 23.6C205.526 24.368 201.43 29.296 201.43 33.776C201.43 38.064 204.246 40.944 208.406 40.944C212.246 40.944 216.022 38.384 217.75 34.992ZM253.146 33.904C253.146 41.2 247.642 46.64 240.538 46.64C232.986 46.64 225.818 40.56 224.922 33.072L230.554 32.048C231.194 36.848 235.674 40.88 240.538 40.88C244.762 40.88 247.45 37.744 247.45 33.712C247.45 27.76 242.202 25.328 237.466 23.6C231.578 21.36 227.226 17.712 227.226 11.056C227.226 5.04 231.706 0.559998 237.658 0.559998C242.714 0.559998 247.322 3.696 249.498 8.112L244.378 10.928C243.546 8.368 240.346 6.256 237.658 6.256C234.97 6.256 232.922 8.176 232.922 10.992C232.922 15.536 236.954 17.2 240.666 18.608C247.642 21.296 253.146 25.904 253.146 33.904ZM251.92 1.2H274.256V6.96H266V46H260.24V6.96H251.92V1.2ZM277.483 1.2H300.523V6.96H291.883V40.24H300.523V46H277.483V40.24H286.123V6.96H277.483V1.2ZM345.357 1.2H358.733V26.928L363.341 46H357.453L352.973 27.568V6.96H349.453L336.141 46H329.997L316.621 6.96H313.101V27.632L308.685 46H302.733L307.341 26.928V1.2H320.781L333.069 37.168L345.357 1.2ZM386.35 0.559998C397.358 0.559998 404.142 10.032 404.142 20.336C404.142 33.072 393.966 46.64 380.526 46.64C369.518 46.64 362.734 37.296 362.734 26.928C362.734 14.192 372.846 0.559998 386.35 0.559998ZM386.478 6.32C375.982 6.32 368.494 16.944 368.494 26.864C368.494 34.416 373.166 40.816 380.334 40.816C390.766 40.816 398.446 30.128 398.446 20.336C398.446 12.528 393.582 6.32 386.478 6.32ZM435.174 1.2H440.934V46H431.014L429.094 40.24L418.726 10.032L406.438 46H400.358L415.654 1.2H421.798L435.174 40.24V1.2ZM444.483 1.2H467.523V6.96H458.883V40.24H467.523V46H444.483V40.24H453.123V6.96H444.483V1.2ZM483.259 40.88C489.851 40.88 495.867 35.12 495.867 28.464C495.867 23.472 492.859 19.568 487.291 19.568C480.699 19.568 474.619 25.328 474.619 31.984C474.619 36.912 477.691 40.88 483.259 40.88ZM474.619 6.96V1.2H501.691V46H495.931V41.264C492.475 44.72 487.803 46.64 483.259 46.64C475.067 46.64 468.859 40.496 468.859 32.176C468.859 22.512 477.499 13.808 487.291 13.808C490.235 13.808 493.499 14.704 495.931 16.56V6.96H474.619ZM506.17 1.2H511.93V40.24H520.57V46H506.17V1.2ZM548.521 33.904C548.521 41.2 543.017 46.64 535.913 46.64C528.361 46.64 521.193 40.56 520.297 33.072L525.929 32.048C526.569 36.848 531.049 40.88 535.913 40.88C540.137 40.88 542.825 37.744 542.825 33.712C542.825 27.76 537.577 25.328 532.841 23.6C526.953 21.36 522.601 17.712 522.601 11.056C522.601 5.04 527.081 0.559998 533.033 0.559998C538.089 0.559998 542.697 3.696 544.873 8.112L539.753 10.928C538.921 8.368 535.721 6.256 533.033 6.256C530.345 6.256 528.297 8.176 528.297 10.992C528.297 15.536 532.329 17.2 536.041 18.608C543.017 21.296 548.521 25.904 548.521 33.904Z" fill="black"/>
</svg>
