<svg width="406" height="48" viewBox="0 0 406 48" fill="none" xmlns="http://www.w3.org/2000/svg">
<mask id="path-1-outside-1_1_329" maskUnits="userSpaceOnUse" x="-1" y="-1" width="408" height="50" fill="black">
<rect fill="white" x="-1" y="-1" width="408" height="50"/>
<path d="M23.725 0.559998C34.733 0.559998 41.517 10.032 41.517 20.336C41.517 33.072 31.341 46.64 17.901 46.64C6.893 46.64 0.109 37.296 0.109 26.928C0.109 14.192 10.221 0.559998 23.725 0.559998ZM23.853 6.32C13.357 6.32 5.869 16.944 5.869 26.864C5.869 34.416 10.541 40.816 17.709 40.816C28.141 40.816 35.821 30.128 35.821 20.336C35.821 12.528 30.957 6.32 23.853 6.32ZM55.125 0.09375V28.4688C55.125 31.8021 55.75 34.5729 57 36.7812C58.8542 40.1146 61.9792 41.7812 66.375 41.7812C71.6458 41.7812 75.2292 39.9792 77.125 36.375C78.1458 34.4167 78.6562 31.7812 78.6562 28.4688V0.09375H84.9688V25.875C84.9688 31.5208 84.2083 35.8646 82.6875 38.9062C79.8958 44.4479 74.625 47.2188 66.875 47.2188C59.125 47.2188 53.8646 44.4479 51.0938 38.9062C49.5729 35.8646 48.8125 31.5208 48.8125 25.875V0.09375H55.125ZM91.67 1.2H97.43V5.872C100.95 2.48 105.622 0.559998 110.23 0.559998C118.422 0.559998 124.63 6.64 124.63 14.96C124.63 22.96 118.998 30 111.446 32.56L124.118 40.112V46.832L97.43 30.832V46H91.67V1.2ZM118.87 14.896C118.87 9.776 115.158 6.256 110.294 6.256C103.766 6.256 97.558 12.144 97.558 18.736C97.558 23.856 100.822 27.568 106.262 27.568C112.918 27.568 118.87 21.488 118.87 14.896ZM199.919 1.2H213.295V26.928L217.903 46H212.015L207.535 27.568V6.96H204.015L190.703 46H184.559L171.183 6.96H167.663V27.632L163.247 46H157.295L161.903 26.928V1.2H175.343L187.631 37.168L199.919 1.2ZM220.108 1.2H243.148V6.96H234.508V40.24H243.148V46H220.108V40.24H228.748V6.96H220.108V1.2ZM272.083 33.904C272.083 41.2 266.579 46.64 259.475 46.64C251.923 46.64 244.755 40.56 243.859 33.072L249.491 32.048C250.131 36.848 254.611 40.88 259.475 40.88C263.699 40.88 266.387 37.744 266.387 33.712C266.387 27.76 261.139 25.328 256.403 23.6C250.515 21.36 246.163 17.712 246.163 11.056C246.163 5.04 250.643 0.559998 256.595 0.559998C261.651 0.559998 266.259 3.696 268.435 8.112L263.315 10.928C262.483 8.368 259.283 6.256 256.595 6.256C253.907 6.256 251.859 8.176 251.859 10.992C251.859 15.536 255.891 17.2 259.603 18.608C266.579 21.296 272.083 25.904 272.083 33.904ZM303.333 33.904C303.333 41.2 297.829 46.64 290.725 46.64C283.173 46.64 276.005 40.56 275.109 33.072L280.741 32.048C281.381 36.848 285.861 40.88 290.725 40.88C294.949 40.88 297.637 37.744 297.637 33.712C297.637 27.76 292.389 25.328 287.653 23.6C281.765 21.36 277.413 17.712 277.413 11.056C277.413 5.04 281.893 0.559998 287.845 0.559998C292.901 0.559998 297.509 3.696 299.685 8.112L294.565 10.928C293.733 8.368 290.533 6.256 287.845 6.256C285.157 6.256 283.109 8.176 283.109 10.992C283.109 15.536 287.141 17.2 290.853 18.608C297.829 21.296 303.333 25.904 303.333 33.904ZM304.983 1.2H328.023V6.96H319.383V40.24H328.023V46H304.983V40.24H313.623V6.96H304.983V1.2ZM351.35 0.559998C362.358 0.559998 369.142 10.032 369.142 20.336C369.142 33.072 358.966 46.64 345.526 46.64C334.518 46.64 327.734 37.296 327.734 26.928C327.734 14.192 337.846 0.559998 351.35 0.559998ZM351.478 6.32C340.982 6.32 333.494 16.944 333.494 26.864C333.494 34.416 338.166 40.816 345.334 40.816C355.766 40.816 363.446 30.128 363.446 20.336C363.446 12.528 358.582 6.32 351.478 6.32ZM400.174 1.2H405.934V46H396.014L394.094 40.24L383.726 10.032L371.438 46H365.358L380.654 1.2H386.798L400.174 40.24V1.2Z"/>
</mask>
<path d="M23.725 0.559998C34.733 0.559998 41.517 10.032 41.517 20.336C41.517 33.072 31.341 46.64 17.901 46.64C6.893 46.64 0.109 37.296 0.109 26.928C0.109 14.192 10.221 0.559998 23.725 0.559998ZM23.853 6.32C13.357 6.32 5.869 16.944 5.869 26.864C5.869 34.416 10.541 40.816 17.709 40.816C28.141 40.816 35.821 30.128 35.821 20.336C35.821 12.528 30.957 6.32 23.853 6.32ZM55.125 0.09375V28.4688C55.125 31.8021 55.75 34.5729 57 36.7812C58.8542 40.1146 61.9792 41.7812 66.375 41.7812C71.6458 41.7812 75.2292 39.9792 77.125 36.375C78.1458 34.4167 78.6562 31.7812 78.6562 28.4688V0.09375H84.9688V25.875C84.9688 31.5208 84.2083 35.8646 82.6875 38.9062C79.8958 44.4479 74.625 47.2188 66.875 47.2188C59.125 47.2188 53.8646 44.4479 51.0938 38.9062C49.5729 35.8646 48.8125 31.5208 48.8125 25.875V0.09375H55.125ZM91.67 1.2H97.43V5.872C100.95 2.48 105.622 0.559998 110.23 0.559998C118.422 0.559998 124.63 6.64 124.63 14.96C124.63 22.96 118.998 30 111.446 32.56L124.118 40.112V46.832L97.43 30.832V46H91.67V1.2ZM118.87 14.896C118.87 9.776 115.158 6.256 110.294 6.256C103.766 6.256 97.558 12.144 97.558 18.736C97.558 23.856 100.822 27.568 106.262 27.568C112.918 27.568 118.87 21.488 118.87 14.896ZM199.919 1.2H213.295V26.928L217.903 46H212.015L207.535 27.568V6.96H204.015L190.703 46H184.559L171.183 6.96H167.663V27.632L163.247 46H157.295L161.903 26.928V1.2H175.343L187.631 37.168L199.919 1.2ZM220.108 1.2H243.148V6.96H234.508V40.24H243.148V46H220.108V40.24H228.748V6.96H220.108V1.2ZM272.083 33.904C272.083 41.2 266.579 46.64 259.475 46.64C251.923 46.64 244.755 40.56 243.859 33.072L249.491 32.048C250.131 36.848 254.611 40.88 259.475 40.88C263.699 40.88 266.387 37.744 266.387 33.712C266.387 27.76 261.139 25.328 256.403 23.6C250.515 21.36 246.163 17.712 246.163 11.056C246.163 5.04 250.643 0.559998 256.595 0.559998C261.651 0.559998 266.259 3.696 268.435 8.112L263.315 10.928C262.483 8.368 259.283 6.256 256.595 6.256C253.907 6.256 251.859 8.176 251.859 10.992C251.859 15.536 255.891 17.2 259.603 18.608C266.579 21.296 272.083 25.904 272.083 33.904ZM303.333 33.904C303.333 41.2 297.829 46.64 290.725 46.64C283.173 46.64 276.005 40.56 275.109 33.072L280.741 32.048C281.381 36.848 285.861 40.88 290.725 40.88C294.949 40.88 297.637 37.744 297.637 33.712C297.637 27.76 292.389 25.328 287.653 23.6C281.765 21.36 277.413 17.712 277.413 11.056C277.413 5.04 281.893 0.559998 287.845 0.559998C292.901 0.559998 297.509 3.696 299.685 8.112L294.565 10.928C293.733 8.368 290.533 6.256 287.845 6.256C285.157 6.256 283.109 8.176 283.109 10.992C283.109 15.536 287.141 17.2 290.853 18.608C297.829 21.296 303.333 25.904 303.333 33.904ZM304.983 1.2H328.023V6.96H319.383V40.24H328.023V46H304.983V40.24H313.623V6.96H304.983V1.2ZM351.35 0.559998C362.358 0.559998 369.142 10.032 369.142 20.336C369.142 33.072 358.966 46.64 345.526 46.64C334.518 46.64 327.734 37.296 327.734 26.928C327.734 14.192 337.846 0.559998 351.35 0.559998ZM351.478 6.32C340.982 6.32 333.494 16.944 333.494 26.864C333.494 34.416 338.166 40.816 345.334 40.816C355.766 40.816 363.446 30.128 363.446 20.336C363.446 12.528 358.582 6.32 351.478 6.32ZM400.174 1.2H405.934V46H396.014L394.094 40.24L383.726 10.032L371.438 46H365.358L380.654 1.2H386.798L400.174 40.24V1.2Z" fill="black"/>
<path d="M23.725 1.56C34.0247 1.56 40.517 10.4142 40.517 20.336H42.517C42.517 9.64984 35.4413 -0.440002 23.725 -0.440002V1.56ZM40.517 20.336C40.517 26.4509 38.0679 32.8013 33.9861 37.6175C29.9089 42.4283 24.2663 45.64 17.901 45.64V47.64C24.9757 47.64 31.1411 44.0677 35.5119 38.9105C39.8781 33.7587 42.517 26.9571 42.517 20.336H40.517ZM17.901 45.64C7.5957 45.64 1.109 36.9072 1.109 26.928H-0.891C-0.891 37.6848 6.1903 47.64 17.901 47.64V45.64ZM1.109 26.928C1.109 20.8111 3.54353 14.4442 7.6175 9.61262C11.6866 4.78687 17.3286 1.56 23.725 1.56V-0.440002C16.6174 -0.440002 10.4514 3.14913 6.0885 8.32337C1.73047 13.4918 -0.891 20.3089 -0.891 26.928H1.109ZM23.853 5.32C18.2438 5.32 13.4823 8.16258 10.1507 12.2392C6.82516 16.3084 4.869 21.6664 4.869 26.864H6.869C6.869 22.1416 8.65684 17.2276 11.6993 13.5048C14.7357 9.78942 18.9662 7.32 23.853 7.32V5.32ZM4.869 26.864C4.869 34.7628 9.8035 41.816 17.709 41.816V39.816C11.2785 39.816 6.869 34.0692 6.869 26.864H4.869ZM17.709 41.816C23.2876 41.816 28.0789 38.9562 31.4474 34.8855C34.8109 30.821 36.821 25.4784 36.821 20.336H34.821C34.821 24.9856 32.9911 29.883 29.9066 33.6105C26.8271 37.3318 22.5624 39.816 17.709 39.816V41.816ZM36.821 20.336C36.821 12.1555 31.6733 5.32 23.853 5.32V7.32C30.2407 7.32 34.821 12.9005 34.821 20.336H36.821ZM55.125 0.09375H56.125V-0.90625H55.125V0.09375ZM57 36.7812L57.8739 36.2951L57.8703 36.2887L57 36.7812ZM77.125 36.375L78.01 36.8405L78.0117 36.8372L77.125 36.375ZM78.6562 0.09375V-0.90625H77.6562V0.09375H78.6562ZM84.9688 0.09375H85.9688V-0.90625H84.9688V0.09375ZM82.6875 38.9062L83.5806 39.3561L83.5819 39.3535L82.6875 38.9062ZM48.8125 0.09375V-0.90625H47.8125V0.09375H48.8125ZM54.125 0.09375V28.4688H56.125V0.09375H54.125ZM54.125 28.4688C54.125 31.9222 54.7721 34.8754 56.1297 37.2738L57.8703 36.2887C56.7279 34.2705 56.125 31.682 56.125 28.4688H54.125ZM56.1261 37.2674C58.1869 40.9722 61.6828 42.7812 66.375 42.7812V40.7812C62.2755 40.7812 59.5214 39.257 57.8739 36.2951L56.1261 37.2674ZM66.375 42.7812C71.8892 42.7812 75.8889 40.873 78.01 36.8405L76.24 35.9095C74.5694 39.0853 71.4025 40.7812 66.375 40.7812V42.7812ZM78.0117 36.8372C79.1349 34.6826 79.6562 31.8683 79.6562 28.4688H77.6562C77.6562 31.6942 77.1567 34.1508 76.2383 35.9128L78.0117 36.8372ZM79.6562 28.4688V0.09375H77.6562V28.4688H79.6562ZM78.6562 1.09375H84.9688V-0.90625H78.6562V1.09375ZM83.9688 0.09375V25.875H85.9688V0.09375H83.9688ZM83.9688 25.875C83.9688 31.4556 83.2131 35.619 81.7931 38.459L83.5819 39.3535C85.2036 36.1102 85.9688 31.586 85.9688 25.875H83.9688ZM81.7944 38.4564C79.218 43.5708 74.3597 46.2188 66.875 46.2188V48.2188C74.8903 48.2188 80.5737 45.325 83.5806 39.3561L81.7944 38.4564ZM66.875 46.2188C59.3901 46.2188 54.5441 43.5709 51.9882 38.459L50.1993 39.3535C53.185 45.3249 58.8599 48.2188 66.875 48.2188V46.2188ZM51.9882 38.459C50.5682 35.619 49.8125 31.4556 49.8125 25.875H47.8125C47.8125 31.586 48.5777 36.1102 50.1993 39.3535L51.9882 38.459ZM49.8125 25.875V0.09375H47.8125V25.875H49.8125ZM48.8125 1.09375H55.125V-0.90625H48.8125V1.09375ZM91.67 1.2V0.199997H90.67V1.2H91.67ZM97.43 1.2H98.43V0.199997H97.43V1.2ZM97.43 5.872H96.43V8.22437L98.1239 6.59208L97.43 5.872ZM111.446 32.56L111.125 31.6129L109.072 32.309L110.934 33.419L111.446 32.56ZM124.118 40.112H125.118V39.5438L124.63 39.253L124.118 40.112ZM124.118 46.832L123.604 47.6897L125.118 48.5975V46.832H124.118ZM97.43 30.832L97.9442 29.9743L96.43 29.0665V30.832H97.43ZM97.43 46V47H98.43V46H97.43ZM91.67 46H90.67V47H91.67V46ZM91.67 2.2H97.43V0.199997H91.67V2.2ZM96.43 1.2V5.872H98.43V1.2H96.43ZM98.1239 6.59208C101.467 3.37057 105.894 1.56 110.23 1.56V-0.440002C105.35 -0.440002 100.433 1.58942 96.7361 5.15192L98.1239 6.59208ZM110.23 1.56C117.876 1.56 123.63 7.19815 123.63 14.96H125.63C125.63 6.08185 118.968 -0.440002 110.23 -0.440002V1.56ZM123.63 14.96C123.63 22.483 118.319 29.1743 111.125 31.6129L111.767 33.5071C119.677 30.8257 125.63 23.437 125.63 14.96H123.63ZM110.934 33.419L123.606 40.971L124.63 39.253L111.958 31.701L110.934 33.419ZM123.118 40.112V46.832H125.118V40.112H123.118ZM124.632 45.9743L97.9442 29.9743L96.9158 31.6897L123.604 47.6897L124.632 45.9743ZM96.43 30.832V46H98.43V30.832H96.43ZM97.43 45H91.67V47H97.43V45ZM92.67 46V1.2H90.67V46H92.67ZM119.87 14.896C119.87 9.21387 115.7 5.256 110.294 5.256V7.256C114.616 7.256 117.87 10.3381 117.87 14.896H119.87ZM110.294 5.256C106.733 5.256 103.308 6.85681 100.782 9.30606C98.255 11.7561 96.558 15.1238 96.558 18.736H98.558C98.558 15.7562 99.965 12.8839 102.174 10.7419C104.384 8.59918 107.327 7.256 110.294 7.256V5.256ZM96.558 18.736C96.558 21.5084 97.4444 23.9783 99.1465 25.7623C100.855 27.5528 103.305 28.568 106.262 28.568V26.568C103.779 26.568 101.877 25.7272 100.594 24.3817C99.3036 23.0297 98.558 21.0836 98.558 18.736H96.558ZM106.262 28.568C113.48 28.568 119.87 22.0306 119.87 14.896H117.87C117.87 20.9454 112.356 26.568 106.262 26.568V28.568ZM199.919 1.2V0.199997H199.204L198.973 0.876706L199.919 1.2ZM213.295 1.2H214.295V0.199997H213.295V1.2ZM213.295 26.928H212.295V27.0471L212.323 27.1629L213.295 26.928ZM217.903 46V47H219.173L218.875 45.7651L217.903 46ZM212.015 46L211.043 46.2362L211.229 47H212.015V46ZM207.535 27.568H206.535V27.6878L206.563 27.8042L207.535 27.568ZM207.535 6.96H208.535V5.96H207.535V6.96ZM204.015 6.96V5.96H203.299L203.069 6.63726L204.015 6.96ZM190.703 46V47H191.419L191.649 46.3227L190.703 46ZM184.559 46L183.613 46.3241L183.845 47H184.559V46ZM171.183 6.96L172.129 6.63587L171.897 5.96H171.183V6.96ZM167.663 6.96V5.96H166.663V6.96H167.663ZM167.663 27.632L168.635 27.8658L168.663 27.7505V27.632H167.663ZM163.247 46V47H164.035L164.219 46.2338L163.247 46ZM157.295 46L156.323 45.7651L156.025 47H157.295V46ZM161.903 26.928L162.875 27.1629L162.903 27.0471V26.928H161.903ZM161.903 1.2V0.199997H160.903V1.2H161.903ZM175.343 1.2L176.289 0.876706L176.058 0.199997H175.343V1.2ZM187.631 37.168L186.685 37.4913L187.631 40.2612L188.577 37.4913L187.631 37.168ZM199.919 2.2H213.295V0.199997H199.919V2.2ZM212.295 1.2V26.928H214.295V1.2H212.295ZM212.323 27.1629L216.931 46.2349L218.875 45.7651L214.267 26.6931L212.323 27.1629ZM217.903 45H212.015V47H217.903V45ZM212.987 45.7638L208.507 27.3318L206.563 27.8042L211.043 46.2362L212.987 45.7638ZM208.535 27.568V6.96H206.535V27.568H208.535ZM207.535 5.96H204.015V7.96H207.535V5.96ZM203.069 6.63726L189.757 45.6773L191.649 46.3227L204.961 7.28274L203.069 6.63726ZM190.703 45H184.559V47H190.703V45ZM185.505 45.6759L172.129 6.63587L170.237 7.28412L183.613 46.3241L185.505 45.6759ZM171.183 5.96H167.663V7.96H171.183V5.96ZM166.663 6.96V27.632H168.663V6.96H166.663ZM166.691 27.3982L162.275 45.7662L164.219 46.2338L168.635 27.8658L166.691 27.3982ZM163.247 45H157.295V47H163.247V45ZM158.267 46.2349L162.875 27.1629L160.931 26.6931L156.323 45.7651L158.267 46.2349ZM162.903 26.928V1.2H160.903V26.928H162.903ZM161.903 2.2H175.343V0.199997H161.903V2.2ZM174.397 1.52329L186.685 37.4913L188.577 36.8447L176.289 0.876706L174.397 1.52329ZM188.577 37.4913L200.865 1.52329L198.973 0.876706L186.685 36.8447L188.577 37.4913ZM220.107 1.2V0.199997H219.107V1.2H220.107ZM243.148 1.2H244.148V0.199997H243.148V1.2ZM243.148 6.96V7.96H244.148V6.96H243.148ZM234.508 6.96V5.96H233.508V6.96H234.508ZM234.508 40.24H233.508V41.24H234.508V40.24ZM243.148 40.24H244.148V39.24H243.148V40.24ZM243.148 46V47H244.148V46H243.148ZM220.107 46H219.107V47H220.107V46ZM220.107 40.24V39.24H219.107V40.24H220.107ZM228.747 40.24V41.24H229.747V40.24H228.747ZM228.747 6.96H229.747V5.96H228.747V6.96ZM220.107 6.96H219.107V7.96H220.107V6.96ZM220.107 2.2H243.148V0.199997H220.107V2.2ZM242.148 1.2V6.96H244.148V1.2H242.148ZM243.148 5.96H234.508V7.96H243.148V5.96ZM233.508 6.96V40.24H235.508V6.96H233.508ZM234.508 41.24H243.148V39.24H234.508V41.24ZM242.148 40.24V46H244.148V40.24H242.148ZM243.148 45H220.107V47H243.148V45ZM221.107 46V40.24H219.107V46H221.107ZM220.107 41.24H228.747V39.24H220.107V41.24ZM229.747 40.24V6.96H227.747V40.24H229.747ZM228.747 5.96H220.107V7.96H228.747V5.96ZM221.107 6.96V1.2H219.107V6.96H221.107ZM243.859 33.072L243.68 32.0881L242.754 32.2565L242.866 33.1908L243.859 33.072ZM249.491 32.048L250.482 31.9158L250.344 30.8766L249.312 31.0641L249.491 32.048ZM256.403 23.6L256.047 24.5347L256.06 24.5394L256.403 23.6ZM268.435 8.112L268.917 8.98822L269.755 8.52751L269.332 7.66999L268.435 8.112ZM263.315 10.928L262.364 11.2371L262.738 12.3868L263.797 11.8042L263.315 10.928ZM259.603 18.608L259.963 17.6749L259.958 17.673L259.603 18.608ZM271.083 33.904C271.083 40.651 266.023 45.64 259.475 45.64V47.64C267.135 47.64 273.083 41.749 273.083 33.904H271.083ZM259.475 45.64C252.404 45.64 245.685 39.9135 244.852 32.9532L242.866 33.1908C243.825 41.2065 251.442 47.64 259.475 47.64V45.64ZM244.038 34.0559L249.67 33.0319L249.312 31.0641L243.68 32.0881L244.038 34.0559ZM248.5 32.1802C249.204 37.4632 254.096 41.88 259.475 41.88V39.88C255.126 39.88 251.058 36.2328 250.482 31.9158L248.5 32.1802ZM259.475 41.88C261.848 41.88 263.847 40.9923 265.247 39.4897C266.639 37.9949 267.387 35.9498 267.387 33.712H265.387C265.387 35.5062 264.791 37.0451 263.783 38.1263C262.783 39.1997 261.326 39.88 259.475 39.88V41.88ZM267.387 33.712C267.387 30.3844 265.897 28.0217 263.807 26.3001C261.76 24.6142 259.12 23.5268 256.746 22.6606L256.06 24.5394C258.422 25.4012 260.774 26.3938 262.535 27.8439C264.253 29.2583 265.387 31.0876 265.387 33.712H267.387ZM256.759 22.6653C253.894 21.5757 251.496 20.1762 249.818 18.3145C248.162 16.4773 247.163 14.1409 247.163 11.056H245.163C245.163 14.6271 246.34 17.4427 248.332 19.6535C250.302 21.8398 253.024 23.3843 256.047 24.5346L256.759 22.6653ZM247.163 11.056C247.163 5.58824 251.199 1.56 256.595 1.56V-0.440002C250.087 -0.440002 245.163 4.49175 245.163 11.056H247.163ZM256.595 1.56C261.24 1.56 265.516 4.45138 267.538 8.554L269.332 7.66999C267.002 2.94062 262.062 -0.440002 256.595 -0.440002V1.56ZM267.953 7.23578L262.833 10.0518L263.797 11.8042L268.917 8.98822L267.953 7.23578ZM264.266 10.6189C263.763 9.07167 262.581 7.74045 261.215 6.80656C259.848 5.87117 258.183 5.256 256.595 5.256V7.256C257.695 7.256 258.974 7.69682 260.087 8.45744C261.201 9.21955 262.035 10.2243 262.364 11.2371L264.266 10.6189ZM256.595 5.256C253.373 5.256 250.859 7.60584 250.859 10.992H252.859C252.859 8.74615 254.441 7.256 256.595 7.256V5.256ZM250.859 10.992C250.859 13.6252 252.054 15.4485 253.72 16.7614C255.331 18.0312 257.412 18.8466 259.248 19.543L259.958 17.673C258.082 16.9614 256.291 16.2408 254.958 15.1906C253.68 14.1835 252.859 12.9028 252.859 10.992H250.859ZM259.243 19.5411C266.054 22.1652 271.083 26.5115 271.083 33.904H273.083C273.083 25.2965 267.104 20.4268 259.963 17.6749L259.243 19.5411ZM275.109 33.072L274.93 32.0881L274.004 32.2565L274.116 33.1908L275.109 33.072ZM280.741 32.048L281.732 31.9158L281.594 30.8766L280.562 31.0641L280.741 32.048ZM287.653 23.6L287.297 24.5347L287.31 24.5394L287.653 23.6ZM299.685 8.112L300.167 8.98822L301.005 8.52751L300.582 7.66999L299.685 8.112ZM294.565 10.928L293.614 11.2371L293.988 12.3868L295.047 11.8042L294.565 10.928ZM290.853 18.608L291.213 17.6749L291.208 17.673L290.853 18.608ZM302.333 33.904C302.333 40.651 297.273 45.64 290.725 45.64V47.64C298.385 47.64 304.333 41.749 304.333 33.904H302.333ZM290.725 45.64C283.654 45.64 276.935 39.9135 276.102 32.9532L274.116 33.1908C275.075 41.2065 282.692 47.64 290.725 47.64V45.64ZM275.288 34.0559L280.92 33.0319L280.562 31.0641L274.93 32.0881L275.288 34.0559ZM279.75 32.1802C280.454 37.4632 285.346 41.88 290.725 41.88V39.88C286.376 39.88 282.308 36.2328 281.732 31.9158L279.75 32.1802ZM290.725 41.88C293.098 41.88 295.097 40.9923 296.497 39.4897C297.889 37.9949 298.637 35.9498 298.637 33.712H296.637C296.637 35.5062 296.041 37.0451 295.033 38.1263C294.033 39.1997 292.576 39.88 290.725 39.88V41.88ZM298.637 33.712C298.637 30.3844 297.147 28.0217 295.057 26.3001C293.01 24.6142 290.37 23.5268 287.996 22.6606L287.31 24.5394C289.672 25.4012 292.024 26.3938 293.785 27.8439C295.503 29.2583 296.637 31.0876 296.637 33.712H298.637ZM288.009 22.6653C285.144 21.5757 282.746 20.1762 281.068 18.3145C279.412 16.4773 278.413 14.1409 278.413 11.056H276.413C276.413 14.6271 277.59 17.4427 279.582 19.6535C281.552 21.8398 284.274 23.3843 287.297 24.5346L288.009 22.6653ZM278.413 11.056C278.413 5.58824 282.449 1.56 287.845 1.56V-0.440002C281.337 -0.440002 276.413 4.49175 276.413 11.056H278.413ZM287.845 1.56C292.49 1.56 296.766 4.45138 298.788 8.554L300.582 7.66999C298.252 2.94062 293.312 -0.440002 287.845 -0.440002V1.56ZM299.203 7.23578L294.083 10.0518L295.047 11.8042L300.167 8.98822L299.203 7.23578ZM295.516 10.6189C295.013 9.07167 293.831 7.74045 292.465 6.80656C291.098 5.87117 289.433 5.256 287.845 5.256V7.256C288.945 7.256 290.224 7.69682 291.337 8.45744C292.451 9.21955 293.285 10.2243 293.614 11.2371L295.516 10.6189ZM287.845 5.256C284.623 5.256 282.109 7.60584 282.109 10.992H284.109C284.109 8.74615 285.691 7.256 287.845 7.256V5.256ZM282.109 10.992C282.109 13.6252 283.304 15.4485 284.97 16.7614C286.581 18.0312 288.662 18.8466 290.498 19.543L291.208 17.673C289.332 16.9614 287.541 16.2408 286.208 15.1906C284.93 14.1835 284.109 12.9028 284.109 10.992H282.109ZM290.493 19.5411C297.304 22.1652 302.333 26.5115 302.333 33.904H304.333C304.333 25.2965 298.354 20.4268 291.213 17.6749L290.493 19.5411ZM304.983 1.2V0.199997H303.983V1.2H304.983ZM328.022 1.2H329.022V0.199997H328.022V1.2ZM328.022 6.96V7.96H329.022V6.96H328.022ZM319.383 6.96V5.96H318.383V6.96H319.383ZM319.383 40.24H318.383V41.24H319.383V40.24ZM328.022 40.24H329.022V39.24H328.022V40.24ZM328.022 46V47H329.022V46H328.022ZM304.983 46H303.983V47H304.983V46ZM304.983 40.24V39.24H303.983V40.24H304.983ZM313.622 40.24V41.24H314.622V40.24H313.622ZM313.622 6.96H314.622V5.96H313.622V6.96ZM304.983 6.96H303.983V7.96H304.983V6.96ZM304.983 2.2H328.022V0.199997H304.983V2.2ZM327.022 1.2V6.96H329.022V1.2H327.022ZM328.022 5.96H319.383V7.96H328.022V5.96ZM318.383 6.96V40.24H320.383V6.96H318.383ZM319.383 41.24H328.022V39.24H319.383V41.24ZM327.022 40.24V46H329.022V40.24H327.022ZM328.022 45H304.983V47H328.022V45ZM305.983 46V40.24H303.983V46H305.983ZM304.983 41.24H313.622V39.24H304.983V41.24ZM314.622 40.24V6.96H312.622V40.24H314.622ZM313.622 5.96H304.983V7.96H313.622V5.96ZM305.983 6.96V1.2H303.983V6.96H305.983ZM351.35 1.56C361.65 1.56 368.142 10.4142 368.142 20.336H370.142C370.142 9.64984 363.066 -0.440002 351.35 -0.440002V1.56ZM368.142 20.336C368.142 26.4509 365.693 32.8013 361.611 37.6175C357.534 42.4283 351.891 45.64 345.526 45.64V47.64C352.601 47.64 358.766 44.0677 363.137 38.9105C367.503 33.7587 370.142 26.9571 370.142 20.336H368.142ZM345.526 45.64C335.221 45.64 328.734 36.9072 328.734 26.928H326.734C326.734 37.6848 333.815 47.64 345.526 47.64V45.64ZM328.734 26.928C328.734 20.8111 331.169 14.4442 335.242 9.61262C339.312 4.78687 344.954 1.56 351.35 1.56V-0.440002C344.242 -0.440002 338.076 3.14913 333.714 8.32337C329.355 13.4918 326.734 20.3089 326.734 26.928H328.734ZM351.478 5.32C345.869 5.32 341.107 8.16258 337.776 12.2392C334.45 16.3084 332.494 21.6664 332.494 26.864H334.494C334.494 22.1416 336.282 17.2276 339.324 13.5048C342.361 9.78942 346.591 7.32 351.478 7.32V5.32ZM332.494 26.864C332.494 34.7628 337.428 41.816 345.334 41.816V39.816C338.904 39.816 334.494 34.0692 334.494 26.864H332.494ZM345.334 41.816C350.913 41.816 355.704 38.9562 359.072 34.8855C362.436 30.821 364.446 25.4784 364.446 20.336H362.446C362.446 24.9856 360.616 29.883 357.532 33.6105C354.452 37.3318 350.187 39.816 345.334 39.816V41.816ZM364.446 20.336C364.446 12.1555 359.298 5.32 351.478 5.32V7.32C357.866 7.32 362.446 12.9005 362.446 20.336H364.446ZM400.173 1.2V0.199997H399.173V1.2H400.173ZM405.934 1.2H406.934V0.199997H405.934V1.2ZM405.934 46V47H406.934V46H405.934ZM396.013 46L395.065 46.3162L395.293 47H396.013V46ZM394.094 40.24L395.042 39.9238L395.039 39.9154L394.094 40.24ZM383.725 10.032L384.671 9.70737L383.723 6.94521L382.779 9.70871L383.725 10.032ZM371.438 46V47H372.153L372.384 46.3233L371.438 46ZM365.358 46L364.411 45.6769L363.959 47H365.358V46ZM380.654 1.2V0.199997H379.938L379.707 0.876883L380.654 1.2ZM386.797 1.2L387.743 0.875871L387.512 0.199997H386.797V1.2ZM400.173 40.24L399.227 40.5641L401.173 40.24H400.173ZM400.173 2.2H405.934V0.199997H400.173V2.2ZM404.934 1.2V46H406.934V1.2H404.934ZM405.934 45H396.013V47H405.934V45ZM396.962 45.6838L395.042 39.9238L393.145 40.5562L395.065 46.3162L396.962 45.6838ZM395.039 39.9154L384.671 9.70737L382.78 10.3566L393.148 40.5646L395.039 39.9154ZM382.779 9.70871L370.491 45.6767L372.384 46.3233L384.672 10.3553L382.779 9.70871ZM371.438 45H365.358V47H371.438V45ZM366.304 46.3231L381.6 1.52311L379.707 0.876883L364.411 45.6769L366.304 46.3231ZM380.654 2.2H386.797V0.199997H380.654V2.2ZM385.852 1.52412L399.227 40.5641L401.12 39.9159L387.743 0.875871L385.852 1.52412ZM401.173 40.24V1.2H399.173V40.24H401.173Z" fill="black" mask="url(#path-1-outside-1_1_329)"/>
</svg>
