<svg width="343" height="77" viewBox="0 0 343 77" fill="none" xmlns="http://www.w3.org/2000/svg">
<mask id="path-1-outside-1_1_339" maskUnits="userSpaceOnUse" x="3" y="14" width="338" height="50" fill="black">
<rect fill="white" x="3" y="14" width="338" height="50"/>
<path d="M27.6912 15.56C38.6992 15.56 45.4832 25.032 45.4832 35.336C45.4832 48.072 35.3073 61.64 21.8672 61.64C10.8592 61.64 4.07525 52.296 4.07525 41.928C4.07525 29.192 14.1872 15.56 27.6912 15.56ZM27.8192 21.32C17.3232 21.32 9.83525 31.944 9.83525 41.864C9.83525 49.416 14.5072 55.816 21.6752 55.816C32.1072 55.816 39.7873 45.128 39.7873 35.336C39.7873 27.528 34.9232 21.32 27.8192 21.32ZM62.9312 15.0938V43.4688C62.9312 46.8021 63.5562 49.5729 64.8062 51.7812C66.6604 55.1146 69.7854 56.7812 74.1812 56.7812C79.4521 56.7812 83.0354 54.9792 84.9312 51.375C85.9521 49.4167 86.4625 46.7812 86.4625 43.4688V15.0938H92.775V40.875C92.775 46.5208 92.0146 50.8646 90.4937 53.9062C87.7021 59.4479 82.4312 62.2188 74.6812 62.2188C66.9312 62.2188 61.6708 59.4479 58.9 53.9062C57.3792 50.8646 56.6187 46.5208 56.6187 40.875V15.0938H62.9312ZM103.316 16.2H109.076V20.872C112.596 17.48 117.268 15.56 121.876 15.56C130.068 15.56 136.276 21.64 136.276 29.96C136.276 37.96 130.644 45 123.092 47.56L135.764 55.112V61.832L109.076 45.832V61H103.316V16.2ZM130.516 29.896C130.516 24.776 126.804 21.256 121.94 21.256C115.412 21.256 109.204 27.144 109.204 33.736C109.204 38.856 112.468 42.568 117.908 42.568C124.564 42.568 130.516 36.488 130.516 29.896ZM176.621 16.2H198.957V21.96H190.701V61H184.941V21.96H176.621V16.2ZM227.791 49.992L232.911 52.68C229.903 58.248 224.143 61.704 218.447 61.704C211.279 61.704 205.775 56.328 205.775 48.968C205.775 42.696 209.743 37 215.247 34.248L206.031 22.216V16.2H232.655V21.96H213.007L221.327 32.648L220.047 38.6C215.567 39.368 211.471 44.296 211.471 48.776C211.471 53.064 214.287 55.944 218.447 55.944C222.287 55.944 226.063 53.384 227.791 49.992ZM253.89 55.88C260.482 55.88 266.498 50.12 266.498 43.464C266.498 38.472 263.49 34.568 257.922 34.568C251.33 34.568 245.25 40.328 245.25 46.984C245.25 51.912 248.322 55.88 253.89 55.88ZM245.25 21.96V16.2H272.322V61H266.562V56.264C263.106 59.72 258.434 61.64 253.89 61.64C245.698 61.64 239.49 55.496 239.49 47.176C239.49 37.512 248.13 28.808 257.922 28.808C260.866 28.808 264.13 29.704 266.562 31.56V21.96H245.25ZM321.015 16.2H334.391V41.928L338.999 61H333.111L328.631 42.568V21.96H325.111L311.799 61H305.655L292.279 21.96H288.759V42.632L284.343 61H278.391L282.999 41.928V16.2H296.439L308.727 52.168L321.015 16.2Z"/>
</mask>
<path d="M27.6912 15.56C38.6992 15.56 45.4832 25.032 45.4832 35.336C45.4832 48.072 35.3073 61.64 21.8672 61.64C10.8592 61.64 4.07525 52.296 4.07525 41.928C4.07525 29.192 14.1872 15.56 27.6912 15.56ZM27.8192 21.32C17.3232 21.32 9.83525 31.944 9.83525 41.864C9.83525 49.416 14.5072 55.816 21.6752 55.816C32.1072 55.816 39.7873 45.128 39.7873 35.336C39.7873 27.528 34.9232 21.32 27.8192 21.32ZM62.9312 15.0938V43.4688C62.9312 46.8021 63.5562 49.5729 64.8062 51.7812C66.6604 55.1146 69.7854 56.7812 74.1812 56.7812C79.4521 56.7812 83.0354 54.9792 84.9312 51.375C85.9521 49.4167 86.4625 46.7812 86.4625 43.4688V15.0938H92.775V40.875C92.775 46.5208 92.0146 50.8646 90.4937 53.9062C87.7021 59.4479 82.4312 62.2188 74.6812 62.2188C66.9312 62.2188 61.6708 59.4479 58.9 53.9062C57.3792 50.8646 56.6187 46.5208 56.6187 40.875V15.0938H62.9312ZM103.316 16.2H109.076V20.872C112.596 17.48 117.268 15.56 121.876 15.56C130.068 15.56 136.276 21.64 136.276 29.96C136.276 37.96 130.644 45 123.092 47.56L135.764 55.112V61.832L109.076 45.832V61H103.316V16.2ZM130.516 29.896C130.516 24.776 126.804 21.256 121.94 21.256C115.412 21.256 109.204 27.144 109.204 33.736C109.204 38.856 112.468 42.568 117.908 42.568C124.564 42.568 130.516 36.488 130.516 29.896ZM176.621 16.2H198.957V21.96H190.701V61H184.941V21.96H176.621V16.2ZM227.791 49.992L232.911 52.68C229.903 58.248 224.143 61.704 218.447 61.704C211.279 61.704 205.775 56.328 205.775 48.968C205.775 42.696 209.743 37 215.247 34.248L206.031 22.216V16.2H232.655V21.96H213.007L221.327 32.648L220.047 38.6C215.567 39.368 211.471 44.296 211.471 48.776C211.471 53.064 214.287 55.944 218.447 55.944C222.287 55.944 226.063 53.384 227.791 49.992ZM253.89 55.88C260.482 55.88 266.498 50.12 266.498 43.464C266.498 38.472 263.49 34.568 257.922 34.568C251.33 34.568 245.25 40.328 245.25 46.984C245.25 51.912 248.322 55.88 253.89 55.88ZM245.25 21.96V16.2H272.322V61H266.562V56.264C263.106 59.72 258.434 61.64 253.89 61.64C245.698 61.64 239.49 55.496 239.49 47.176C239.49 37.512 248.13 28.808 257.922 28.808C260.866 28.808 264.13 29.704 266.562 31.56V21.96H245.25ZM321.015 16.2H334.391V41.928L338.999 61H333.111L328.631 42.568V21.96H325.111L311.799 61H305.655L292.279 21.96H288.759V42.632L284.343 61H278.391L282.999 41.928V16.2H296.439L308.727 52.168L321.015 16.2Z" fill="black"/>
<path d="M27.6912 16.56C37.991 16.56 44.4832 25.4142 44.4832 35.336H46.4832C46.4832 24.6498 39.4075 14.56 27.6912 14.56V16.56ZM44.4832 35.336C44.4832 41.4509 42.0341 47.8013 37.9524 52.6175C33.8752 57.4283 28.2325 60.64 21.8672 60.64V62.64C28.942 62.64 35.1073 59.0677 39.4781 53.9105C43.8444 48.7587 46.4832 41.9571 46.4832 35.336H44.4832ZM21.8672 60.64C11.562 60.64 5.07525 51.9072 5.07525 41.928H3.07525C3.07525 52.6848 10.1565 62.64 21.8672 62.64V60.64ZM5.07525 41.928C5.07525 35.8111 7.50978 29.4442 11.5837 24.6126C15.6528 19.7869 21.2949 16.56 27.6912 16.56V14.56C20.5836 14.56 14.4177 18.1491 10.0547 23.3234C5.69671 28.4918 3.07525 35.3089 3.07525 41.928H5.07525ZM27.8192 20.32C22.2101 20.32 17.4485 23.1626 14.1169 27.2392C10.7914 31.3084 8.83525 36.6664 8.83525 41.864H10.8352C10.8352 37.1416 12.6231 32.2276 15.6656 28.5048C18.702 24.7894 22.9324 22.32 27.8192 22.32V20.32ZM8.83525 41.864C8.83525 49.7628 13.7697 56.816 21.6752 56.816V54.816C15.2447 54.816 10.8352 49.0692 10.8352 41.864H8.83525ZM21.6752 56.816C27.2539 56.816 32.0451 53.9562 35.4137 49.8855C38.7771 45.821 40.7873 40.4784 40.7873 35.336H38.7873C38.7873 39.9856 36.9574 44.883 33.8728 48.6105C30.7934 52.3318 26.5286 54.816 21.6752 54.816V56.816ZM40.7873 35.336C40.7873 27.1555 35.6396 20.32 27.8192 20.32V22.32C34.2069 22.32 38.7873 27.9005 38.7873 35.336H40.7873ZM62.9312 15.0938H63.9312V14.0938H62.9312V15.0938ZM64.8062 51.7812L65.6802 51.2951L65.6765 51.2887L64.8062 51.7812ZM84.9312 51.375L85.8163 51.8405L85.818 51.8372L84.9312 51.375ZM86.4625 15.0938V14.0938H85.4625V15.0938H86.4625ZM92.775 15.0938H93.775V14.0938H92.775V15.0938ZM90.4937 53.9062L91.3868 54.3561L91.3882 54.3535L90.4937 53.9062ZM56.6187 15.0938V14.0938H55.6187V15.0938H56.6187ZM61.9312 15.0938V43.4688H63.9312V15.0938H61.9312ZM61.9312 43.4688C61.9312 46.9222 62.5784 49.8754 63.936 52.2738L65.6765 51.2887C64.5341 49.2705 63.9312 46.682 63.9312 43.4688H61.9312ZM63.9323 52.2674C65.9931 55.9722 69.4891 57.7812 74.1812 57.7812V55.7812C70.0817 55.7812 67.3277 54.257 65.6801 51.2951L63.9323 52.2674ZM74.1812 57.7812C79.6954 57.7812 83.6951 55.873 85.8163 51.8405L84.0462 50.9095C82.3757 54.0853 79.2087 55.7812 74.1812 55.7812V57.7812ZM85.818 51.8372C86.9412 49.6826 87.4625 46.8683 87.4625 43.4688H85.4625C85.4625 46.6942 84.963 49.1508 84.0445 50.9128L85.818 51.8372ZM87.4625 43.4688V15.0938H85.4625V43.4688H87.4625ZM86.4625 16.0938H92.775V14.0938H86.4625V16.0938ZM91.775 15.0938V40.875H93.775V15.0938H91.775ZM91.775 40.875C91.775 46.4556 91.0193 50.619 89.5993 53.459L91.3882 54.3535C93.0098 51.1102 93.775 46.586 93.775 40.875H91.775ZM89.6007 53.4564C87.0242 58.5708 82.166 61.2188 74.6812 61.2188V63.2188C82.6965 63.2188 88.38 60.325 91.3868 54.3561L89.6007 53.4564ZM74.6812 61.2188C67.1963 61.2188 62.3504 58.5709 59.7944 53.459L58.0056 54.3535C60.9913 60.3249 66.6662 63.2188 74.6812 63.2188V61.2188ZM59.7944 53.459C58.3744 50.619 57.6187 46.4556 57.6187 40.875H55.6187C55.6187 46.586 56.3839 51.1102 58.0056 54.3535L59.7944 53.459ZM57.6187 40.875V15.0938H55.6187V40.875H57.6187ZM56.6187 16.0938H62.9312V14.0938H56.6187V16.0938ZM103.316 16.2V15.2H102.316V16.2H103.316ZM109.076 16.2H110.076V15.2H109.076V16.2ZM109.076 20.872H108.076V23.2244L109.77 21.5921L109.076 20.872ZM123.092 47.56L122.771 46.6129L120.718 47.309L122.58 48.419L123.092 47.56ZM135.764 55.112H136.764V54.5438L136.276 54.253L135.764 55.112ZM135.764 61.832L135.25 62.6897L136.764 63.5975V61.832H135.764ZM109.076 45.832L109.59 44.9743L108.076 44.0665V45.832H109.076ZM109.076 61V62H110.076V61H109.076ZM103.316 61H102.316V62H103.316V61ZM103.316 17.2H109.076V15.2H103.316V17.2ZM108.076 16.2V20.872H110.076V16.2H108.076ZM109.77 21.5921C113.113 18.3706 117.54 16.56 121.876 16.56V14.56C116.997 14.56 112.079 16.5894 108.382 20.1519L109.77 21.5921ZM121.876 16.56C129.522 16.56 135.276 22.1981 135.276 29.96H137.276C137.276 21.0819 130.615 14.56 121.876 14.56V16.56ZM135.276 29.96C135.276 37.483 129.965 44.1743 122.771 46.6129L123.413 48.5071C131.323 45.8257 137.276 38.437 137.276 29.96H135.276ZM122.58 48.419L135.252 55.971L136.276 54.253L123.604 46.701L122.58 48.419ZM134.764 55.112V61.832H136.764V55.112H134.764ZM136.278 60.9743L109.59 44.9743L108.562 46.6897L135.25 62.6897L136.278 60.9743ZM108.076 45.832V61H110.076V45.832H108.076ZM109.076 60H103.316V62H109.076V60ZM104.316 61V16.2H102.316V61H104.316ZM131.516 29.896C131.516 24.2139 127.347 20.256 121.94 20.256V22.256C126.262 22.256 129.516 25.3381 129.516 29.896H131.516ZM121.94 20.256C118.379 20.256 114.954 21.8568 112.428 24.3061C109.901 26.7561 108.204 30.1238 108.204 33.736H110.204C110.204 30.7562 111.611 27.8839 113.82 25.7419C116.03 23.5992 118.973 22.256 121.94 22.256V20.256ZM108.204 33.736C108.204 36.5084 109.091 38.9783 110.793 40.7623C112.501 42.5528 114.951 43.568 117.908 43.568V41.568C115.425 41.568 113.523 40.7272 112.24 39.3817C110.95 38.0297 110.204 36.0836 110.204 33.736H108.204ZM117.908 43.568C125.126 43.568 131.516 37.0306 131.516 29.896H129.516C129.516 35.9454 124.002 41.568 117.908 41.568V43.568ZM176.621 16.2V15.2H175.621V16.2H176.621ZM198.957 16.2H199.957V15.2H198.957V16.2ZM198.957 21.96V22.96H199.957V21.96H198.957ZM190.701 21.96V20.96H189.701V21.96H190.701ZM190.701 61V62H191.701V61H190.701ZM184.941 61H183.941V62H184.941V61ZM184.941 21.96H185.941V20.96H184.941V21.96ZM176.621 21.96H175.621V22.96H176.621V21.96ZM176.621 17.2H198.957V15.2H176.621V17.2ZM197.957 16.2V21.96H199.957V16.2H197.957ZM198.957 20.96H190.701V22.96H198.957V20.96ZM189.701 21.96V61H191.701V21.96H189.701ZM190.701 60H184.941V62H190.701V60ZM185.941 61V21.96H183.941V61H185.941ZM184.941 20.96H176.621V22.96H184.941V20.96ZM177.621 21.96V16.2H175.621V21.96H177.621ZM227.791 49.992L228.256 49.1066L227.36 48.636L226.9 49.5381L227.791 49.992ZM232.911 52.68L233.791 53.1553L234.272 52.265L233.376 51.7946L232.911 52.68ZM215.247 34.248L215.694 35.1424L216.777 34.601L216.041 33.6399L215.247 34.248ZM206.031 22.216H205.031V22.555L205.237 22.8241L206.031 22.216ZM206.031 16.2V15.2H205.031V16.2H206.031ZM232.655 16.2H233.655V15.2H232.655V16.2ZM232.655 21.96V22.96H233.655V21.96H232.655ZM213.007 21.96V20.96H210.962L212.218 22.5743L213.007 21.96ZM221.327 32.648L222.305 32.8582L222.403 32.402L222.116 32.0337L221.327 32.648ZM220.047 38.6L220.216 39.5856L220.883 39.4714L221.025 38.8102L220.047 38.6ZM227.326 50.8774L232.446 53.5654L233.376 51.7946L228.256 49.1066L227.326 50.8774ZM232.031 52.2047C229.187 57.4704 223.753 60.704 218.447 60.704V62.704C224.534 62.704 230.62 59.0256 233.791 53.1553L232.031 52.2047ZM218.447 60.704C211.828 60.704 206.775 55.7724 206.775 48.968H204.775C204.775 56.8836 210.73 62.704 218.447 62.704V60.704ZM206.775 48.968C206.775 43.1186 210.488 37.7456 215.694 35.1424L214.8 33.3536C208.998 36.2544 204.775 42.2734 204.775 48.968H206.775ZM216.041 33.6399L206.825 21.6079L205.237 22.8241L214.453 34.8561L216.041 33.6399ZM207.031 22.216V16.2H205.031V22.216H207.031ZM206.031 17.2H232.655V15.2H206.031V17.2ZM231.655 16.2V21.96H233.655V16.2H231.655ZM232.655 20.96H213.007V22.96H232.655V20.96ZM212.218 22.5743L220.538 33.2623L222.116 32.0337L213.796 21.3457L212.218 22.5743ZM220.35 32.4378L219.07 38.3898L221.025 38.8102L222.305 32.8582L220.35 32.4378ZM219.878 37.6144C217.35 38.0478 215.009 39.6319 213.313 41.6533C211.618 43.6741 210.471 46.2459 210.471 48.776H212.471C212.471 46.8261 213.373 44.6939 214.845 42.9387C216.317 41.1841 218.265 39.9202 220.216 39.5856L219.878 37.6144ZM210.471 48.776C210.471 51.1424 211.252 53.1974 212.683 54.6659C214.116 56.1366 216.129 56.944 218.447 56.944V54.944C216.605 54.944 215.13 54.3114 214.115 53.2701C213.099 52.2266 212.471 50.6976 212.471 48.776H210.471ZM218.447 56.944C222.703 56.944 226.802 54.1365 228.682 50.4459L226.9 49.5381C225.324 52.6315 221.872 54.944 218.447 54.944V56.944ZM245.25 21.96H244.25V22.96H245.25V21.96ZM245.25 16.2V15.2H244.25V16.2H245.25ZM272.322 16.2H273.322V15.2H272.322V16.2ZM272.322 61V62H273.322V61H272.322ZM266.562 61H265.562V62H266.562V61ZM266.562 56.264H267.562V53.8498L265.855 55.5569L266.562 56.264ZM266.562 31.56L265.956 32.3549L267.562 33.5811V31.56H266.562ZM266.562 21.96H267.562V20.96H266.562V21.96ZM253.89 56.88C261.011 56.88 267.498 50.6951 267.498 43.464H265.498C265.498 49.5449 259.953 54.88 253.89 54.88V56.88ZM267.498 43.464C267.498 40.7725 266.686 38.2924 265.04 36.473C263.381 34.6397 260.955 33.568 257.922 33.568V35.568C260.458 35.568 262.32 36.4483 263.557 37.815C264.806 39.1956 265.498 41.1635 265.498 43.464H267.498ZM257.922 33.568C250.808 33.568 244.25 39.7465 244.25 46.984H246.25C246.25 40.9095 251.853 35.568 257.922 35.568V33.568ZM244.25 46.984C244.25 49.6514 245.083 52.1299 246.743 53.9532C248.415 55.7896 250.853 56.88 253.89 56.88V54.88C251.359 54.88 249.478 53.9865 248.222 52.6068C246.954 51.2141 246.25 49.2446 246.25 46.984H244.25ZM246.25 21.96V16.2H244.25V21.96H246.25ZM245.25 17.2H272.322V15.2H245.25V17.2ZM271.322 16.2V61H273.322V16.2H271.322ZM272.322 60H266.562V62H272.322V60ZM267.562 61V56.264H265.562V61H267.562ZM265.855 55.5569C262.581 58.831 258.161 60.64 253.89 60.64V62.64C258.707 62.64 263.631 60.609 267.269 56.9711L265.855 55.5569ZM253.89 60.64C246.251 60.64 240.49 54.9437 240.49 47.176H238.49C238.49 56.0483 245.146 62.64 253.89 62.64V60.64ZM240.49 47.176C240.49 38.0643 248.683 29.808 257.922 29.808V27.808C247.578 27.808 238.49 36.9597 238.49 47.176H240.49ZM257.922 29.808C260.689 29.808 263.728 30.6553 265.956 32.3549L267.169 30.765C264.532 28.7527 261.044 27.808 257.922 27.808V29.808ZM267.562 31.56V21.96H265.562V31.56H267.562ZM266.562 20.96H245.25V22.96H266.562V20.96ZM321.015 16.2V15.2H320.3L320.069 15.8767L321.015 16.2ZM334.391 16.2H335.391V15.2H334.391V16.2ZM334.391 41.928H333.391V42.0471L333.419 42.1629L334.391 41.928ZM338.999 61V62H340.27L339.971 60.7651L338.999 61ZM333.111 61L332.14 61.2362L332.325 62H333.111V61ZM328.631 42.568H327.631V42.6878L327.66 42.8042L328.631 42.568ZM328.631 21.96H329.631V20.96H328.631V21.96ZM325.111 21.96V20.96H324.396L324.165 21.6373L325.111 21.96ZM311.799 61V62H312.515L312.746 61.3227L311.799 61ZM305.655 61L304.709 61.3241L304.941 62H305.655V61ZM292.279 21.96L293.225 21.6359L292.994 20.96H292.279V21.96ZM288.759 21.96V20.96H287.759V21.96H288.759ZM288.759 42.632L289.732 42.8658L289.759 42.7505V42.632H288.759ZM284.343 61V62H285.131L285.316 61.2338L284.343 61ZM278.391 61L277.419 60.7651L277.121 62H278.391V61ZM282.999 41.928L283.971 42.1629L283.999 42.0471V41.928H282.999ZM282.999 16.2V15.2H281.999V16.2H282.999ZM296.439 16.2L297.386 15.8767L297.154 15.2H296.439V16.2ZM308.727 52.168L307.781 52.4913L308.727 55.2612L309.674 52.4913L308.727 52.168ZM321.015 17.2H334.391V15.2H321.015V17.2ZM333.391 16.2V41.928H335.391V16.2H333.391ZM333.419 42.1629L338.027 61.2349L339.971 60.7651L335.363 41.6931L333.419 42.1629ZM338.999 60H333.111V62H338.999V60ZM334.083 60.7638L329.603 42.3318L327.66 42.8042L332.14 61.2362L334.083 60.7638ZM329.631 42.568V21.96H327.631V42.568H329.631ZM328.631 20.96H325.111V22.96H328.631V20.96ZM324.165 21.6373L310.853 60.6773L312.746 61.3227L326.058 22.2827L324.165 21.6373ZM311.799 60H305.655V62H311.799V60ZM306.601 60.6759L293.225 21.6359L291.333 22.2841L304.709 61.3241L306.601 60.6759ZM292.279 20.96H288.759V22.96H292.279V20.96ZM287.759 21.96V42.632H289.759V21.96H287.759ZM287.787 42.3982L283.371 60.7662L285.316 61.2338L289.732 42.8658L287.787 42.3982ZM284.343 60H278.391V62H284.343V60ZM279.363 61.2349L283.971 42.1629L282.027 41.6931L277.419 60.7651L279.363 61.2349ZM283.999 41.928V16.2H281.999V41.928H283.999ZM282.999 17.2H296.439V15.2H282.999V17.2ZM295.493 16.5233L307.781 52.4913L309.674 51.8447L297.386 15.8767L295.493 16.5233ZM309.674 52.4913L321.962 16.5233L320.069 15.8767L307.781 51.8447L309.674 52.4913Z" fill="black" mask="url(#path-1-outside-1_1_339)"/>
</svg>
