<svg width="88" height="88" viewBox="0 0 88 88" fill="none" xmlns="http://www.w3.org/2000/svg">
<rect width="88" height="88" rx="44" fill="#0492C2"/>
<path d="M46.3338 30L46.3335 31.1667" stroke="white" stroke-width="3" stroke-linecap="round" stroke-linejoin="round"/>
<path d="M46.3338 42.8333L46.3335 44" stroke="white" stroke-width="3" stroke-linecap="round" stroke-linejoin="round"/>
<path d="M52.3955 33.5001L51.3851 34.0832" stroke="white" stroke-width="3" stroke-linecap="round" stroke-linejoin="round"/>
<path d="M41.2818 39.9168L40.2713 40.4999" stroke="white" stroke-width="3" stroke-linecap="round" stroke-linejoin="round"/>
<path d="M40.2713 33.5001L41.2818 34.0832" stroke="white" stroke-width="3" stroke-linecap="round" stroke-linejoin="round"/>
<path d="M51.3851 39.9168L52.3955 40.4999" stroke="white" stroke-width="3" stroke-linecap="round" stroke-linejoin="round"/>
<path d="M30 37C30 28.6237 36.7903 21.8333 45.1667 21.8333" stroke="white" stroke-width="3" stroke-linecap="round" stroke-linejoin="round"/>
<path d="M44 51V52.9408C44 54.9495 42.7147 56.7328 40.8091 57.368L36.1424 58.9236C34.7193 59.3979 33.1549 59.1593 31.938 58.2822C30.7211 57.4051 30 55.9965 30 54.4964V50.3687" stroke="white" stroke-width="3" stroke-linecap="round" stroke-linejoin="round"/>
<path d="M39.8264 57.6871L38.0236 63.0954C37.7864 63.807 37.9057 64.5892 38.3443 65.1976C38.7828 65.8061 39.4871 66.1667 40.2372 66.1666H57.0958C57.8459 66.1667 58.5502 65.8061 58.9887 65.1976C59.4273 64.5892 59.5466 63.807 59.3094 63.0954L58.6886 61.2329C56.7705 55.4785 57.4626 49.1732 60.5834 43.9719V43.9719C61.9465 41.7 62.6665 39.1005 62.6665 36.4511V36.4511C62.6665 32.5742 61.1264 28.8561 58.3851 26.1148C55.6437 23.3734 51.9256 21.8333 48.0488 21.8333H45.1665" stroke="white" stroke-width="3" stroke-linecap="round" stroke-linejoin="round"/>
<path d="M30.0001 50.3687L26.6265 48.682C26.0278 48.3844 25.5859 47.8438 25.4134 47.1978C25.2408 46.5519 25.3542 45.8629 25.7248 45.3064L30.0001 38.8935V37" stroke="white" stroke-width="3" stroke-linecap="round" stroke-linejoin="round"/>
</svg>
