<svg width="24" height="23" viewBox="0 0 24 23" fill="none" xmlns="http://www.w3.org/2000/svg">
<path d="M0.00504454 9.96875L0.0050444 13.0312L17.9972 13.0313L17.9972 16.0938L20.9959 16.0938L20.9959 13.0313L23.9946 13.0313L23.9946 9.96875L20.9959 9.96875L20.9959 6.90625L17.9972 6.90625L17.9972 9.96875L0.00504454 9.96875ZM14.9985 3.84375L17.9972 3.84375L17.9972 6.90625L14.9985 6.90625L14.9985 3.84375ZM14.9985 3.84375L11.9998 3.84375L11.9998 0.781249L14.9985 0.78125L14.9985 3.84375ZM14.9985 19.1563L17.9972 19.1563L17.9972 16.0938L14.9985 16.0938L14.9985 19.1563ZM14.9985 19.1563L11.9998 19.1563L11.9998 22.2188L14.9985 22.2188L14.9985 19.1563Z" fill="white"/>
</svg>
